<?xml version="1.0" encoding="UTF-8"?>
<svg version="1.1" xmlns="http://www.w3.org/2000/svg" width="400" height="396">
<path d="M0 0 C132 0 264 0 400 0 C400 130.68 400 261.36 400 396 C268 396 136 396 0 396 C0 265.32 0 134.64 0 0 Z " fill="#FCFCFC" transform="translate(0,0)"/>
<path d="M0 0 C26.58102659 -0.02254422 53.16204548 -0.04097754 79.74307919 -0.05181217 C92.0841754 -0.05697584 104.42526528 -0.06401987 116.76635742 -0.07543945 C127.51863454 -0.08538414 138.27090706 -0.09185291 149.02318865 -0.09408849 C154.72023211 -0.09539597 160.41726242 -0.09848413 166.11430168 -0.10573006 C171.469872 -0.11248688 176.82542367 -0.11461765 182.18099785 -0.11310768 C184.15273642 -0.11338416 186.12447558 -0.11539128 188.09621048 -0.11920547 C190.77586922 -0.12413745 193.45545639 -0.12300013 196.13511658 -0.12025452 C196.92595719 -0.12316736 197.7167978 -0.1260802 198.53160328 -0.12908131 C203.88587879 -0.11412121 203.88587879 -0.11412121 205 1 C205.30812861 4.76256903 205.27842143 8.53886644 205.3125 12.3125 C205.34150391 13.37146484 205.37050781 14.43042969 205.40039062 15.52148438 C205.40876953 16.54177734 205.41714844 17.56207031 205.42578125 18.61328125 C205.44765503 20.01767456 205.44765503 20.01767456 205.4699707 21.45043945 C204.86401901 24.73768802 203.47522852 25.83830042 201 28 C199.73283114 30.02883677 199.73283114 30.02883677 198.6875 32.1875 C196.38758509 36.50963111 193.62457426 40.19275519 190.56640625 44.00390625 C188.81923512 46.23035126 187.39602746 48.54033256 186 51 C185.071875 52.36125 185.071875 52.36125 184.125 53.75 C182.42916709 56.34362681 180.95679653 58.89909238 179.5 61.625 C177.67344592 64.97555013 175.80220473 67.38460892 173 70 C172.566875 70.721875 172.13375 71.44375 171.6875 72.1875 C170.1096074 74.817321 168.40008887 77.09800086 166.5 79.5 C163.5931258 83.19744668 161.13585118 86.86459979 158.92578125 91.01953125 C156.80131652 94.95347699 154.63395917 98.59928294 151.875 102.125 C149.87421879 104.68296079 148.8070615 106.47815193 147.5625 109.5625 C145.808161 113.42204581 143.74849006 115.38875721 140.703125 118.2421875 C138.15159689 120.87564542 136.73260174 123.77377608 135 127 C133.68133728 128.678298 132.34919532 130.34614767 131 132 C129.9935725 133.66279327 128.99414593 135.32983484 128 137 C127.17563971 138.17302415 126.34163 139.3393043 125.5 140.5 C123.5066996 143.25491965 121.72826246 146.069468 120 149 C118.67653494 151.0065438 117.34270821 153.00628175 116 155 C115.319375 156.051875 114.63875 157.10375 113.9375 158.1875 C112 161 112 161 110.53125 162.40625 C108.77150045 164.23782607 107.74495474 166.06777445 106.5625 168.3125 C103.56621299 173.84892287 100.0900735 178.94615092 96.34375 183.99609375 C94.84752399 186.1644623 94.84752399 186.1644623 93.19921875 189.26953125 C90.95087356 193.25350599 88.20098035 196.71495914 85.3125 200.25 C81.5247442 204.74478551 81.5247442 204.74478551 79 210 C121.24 210 163.48 210 207 210 C207 227.49 207 244.98 207 263 C205.18591364 264.81408636 202.68457297 264.12264895 200.26987213 264.12908131 C199.44012204 264.12616847 198.61037194 264.12325563 197.75547791 264.12025452 C196.88074328 264.12110894 196.00600865 264.12196337 195.10476691 264.12284368 C192.15047207 264.12450117 189.19623303 264.11897273 186.24194336 264.11352539 C184.1334483 264.11324355 182.02495314 264.11340119 179.91645813 264.1139679 C174.17289034 264.114256 168.42934324 264.10835726 162.68578029 264.10139394 C156.69063212 264.09516246 150.69548354 264.09455677 144.70033264 264.09336853 C133.33891904 264.0902546 121.977515 264.08204039 110.61610562 264.07201904 C97.68525354 264.0608598 84.75440102 264.05534793 71.82354534 264.05032361 C45.21569158 264.03985783 18.60784632 264.0222572 -8 264 C-8.08676908 259.87513162 -8.14031295 255.75049616 -8.1875 251.625 C-8.21263672 250.449375 -8.23777344 249.27375 -8.26367188 248.0625 C-8.27333984 246.94101562 -8.28300781 245.81953125 -8.29296875 244.6640625 C-8.3086792 243.62717285 -8.32438965 242.5902832 -8.34057617 241.52197266 C-8.22818604 240.68972168 -8.1157959 239.8574707 -8 239 C-6.515 238.01 -6.515 238.01 -5 237 C-3.94115126 235.37008677 -2.95333598 233.6937911 -2 232 C2.84138511 223.96668879 7.69395172 216.04753152 13.609375 208.75 C15.30420275 206.61718305 16.65657145 204.36699316 18 202 C21.61089494 196.35797665 21.61089494 196.35797665 23.5625 194.5625 C25.29030006 192.85819184 25.29030006 192.85819184 26.5 189.5 C27.85386857 186.34097335 28.59441458 185.20511997 31 183 C31.495 182.175 31.99 181.35 32.5 180.5 C34 178 34 178 35.47265625 176.58984375 C37.6179478 174.35676533 38.59216151 171.83839038 39.83984375 169.03515625 C41 167 41 167 42.94140625 165.08984375 C45.26310762 162.73289834 46.51092223 160.44578428 48 157.5 C50.57716702 152.40169133 50.57716702 152.40169133 52.875 150.21875 C55.43825022 147.54241521 56.89484265 144.70417906 58.63476562 141.45214844 C60.92190658 137.34412917 63.59890649 133.50417359 66.25 129.625 C67.32091586 128.0568732 68.3887687 126.48664894 69.453125 124.9140625 C69.91879883 124.2329541 70.38447266 123.5518457 70.86425781 122.85009766 C72.16131794 120.89408388 72.16131794 120.89408388 73 118 C73.99 118 74.98 118 76 118 C76.226875 117.29875 76.45375 116.5975 76.6875 115.875 C78.28470477 112.37636099 80.50788129 109.91760239 83 107 C84.0409066 105.35857037 85.04504326 103.69287785 86 102 C88.77777778 97.11111111 88.77777778 97.11111111 91 96 C91.28875 95.236875 91.5775 94.47375 91.875 93.6875 C93 91 93 91 94.875 89.3125 C97.62107796 86.32412104 98.67763423 83.21269398 100.0703125 79.4375 C100.92220969 77.20395443 101.89284776 75.11632641 103 73 C103.66 73 104.32 73 105 73 C105.226875 72.443125 105.45375 71.88625 105.6875 71.3125 C107.36716718 68.35308639 109.56751852 66.37591214 112 64 C115.00436912 60.76130682 116.89701467 58.41194132 118 54 C79.06 54 40.12 54 0 54 C0 36.18 0 18.36 0 0 Z " fill="#010101" transform="translate(94,68)"/>
<path d="M0 0 C86.13 0 172.26 0 261 0 C261 7.92 261 15.84 261 24 C260 25 260 25 258.20867389 25.1241985 C257.02451604 25.12362892 257.02451604 25.12362892 255.81643581 25.12304783 C254.90876192 25.12503888 254.00108802 25.12702993 253.06590885 25.12908131 C252.05717513 25.12616847 251.04844142 25.12325563 250.00914001 25.12025452 C248.94656198 25.12110894 247.88398394 25.12196337 246.78920656 25.12284368 C243.1992167 25.12450164 239.60927272 25.11897196 236.01928711 25.11352539 C233.45759584 25.11324356 230.89590448 25.11340117 228.33421326 25.1139679 C222.80391281 25.11419622 217.27362736 25.11134469 211.74333 25.10573006 C203.74736196 25.09761742 195.75139962 25.09500008 187.7554279 25.09374207 C174.78380743 25.09155117 161.81219324 25.08489008 148.84057617 25.07543945 C136.23673535 25.0662663 123.63289622 25.05918499 111.02905273 25.05493164 C110.25269661 25.05466892 109.47634048 25.05440619 108.67645841 25.05413551 C104.78187053 25.05283051 100.88728264 25.05156679 96.99269474 25.05032361 C64.66179174 25.03994983 32.33089719 25.0220561 0 25 C0 16.75 0 8.5 0 0 Z " fill="#090909" transform="translate(63,352)"/>
<path d="M0 0 C86.13 0 172.26 0 261 0 C261 7.92 261 15.84 261 24 C260 25 260 25 258.20867389 25.1241985 C257.02451604 25.12362892 257.02451604 25.12362892 255.81643581 25.12304783 C254.90876192 25.12503888 254.00108802 25.12702993 253.06590885 25.12908131 C252.05717513 25.12616847 251.04844142 25.12325563 250.00914001 25.12025452 C248.94656198 25.12110894 247.88398394 25.12196337 246.78920656 25.12284368 C243.1992167 25.12450164 239.60927272 25.11897196 236.01928711 25.11352539 C233.45759584 25.11324356 230.89590448 25.11340117 228.33421326 25.1139679 C222.80391281 25.11419622 217.27362736 25.11134469 211.74333 25.10573006 C203.74736196 25.09761742 195.75139962 25.09500008 187.7554279 25.09374207 C174.78380743 25.09155117 161.81219324 25.08489008 148.84057617 25.07543945 C136.23673535 25.0662663 123.63289622 25.05918499 111.02905273 25.05493164 C110.25269661 25.05466892 109.47634048 25.05440619 108.67645841 25.05413551 C104.78187053 25.05283051 100.88728264 25.05156679 96.99269474 25.05032361 C64.66179174 25.03994983 32.33089719 25.0220561 0 25 C0 16.75 0 8.5 0 0 Z " fill="#000000" transform="translate(63,24)"/>
<path d="M0 0 C86.13 0 172.26 0 261 0 C261 7.92 261 15.84 261 24 C260 25 260 25 258.20867389 25.1241985 C257.02451604 25.12362892 257.02451604 25.12362892 255.81643581 25.12304783 C254.90876192 25.12503888 254.00108802 25.12702993 253.06590885 25.12908131 C252.05717513 25.12616847 251.04844142 25.12325563 250.00914001 25.12025452 C248.94656198 25.12110894 247.88398394 25.12196337 246.78920656 25.12284368 C243.1992167 25.12450164 239.60927272 25.11897196 236.01928711 25.11352539 C233.45759584 25.11324356 230.89590448 25.11340117 228.33421326 25.1139679 C222.80391281 25.11419622 217.27362736 25.11134469 211.74333 25.10573006 C203.74736196 25.09761742 195.75139962 25.09500008 187.7554279 25.09374207 C174.78380743 25.09155117 161.81219324 25.08489008 148.84057617 25.07543945 C136.23673535 25.0662663 123.63289622 25.05918499 111.02905273 25.05493164 C110.25269661 25.05466892 109.47634048 25.05440619 108.67645841 25.05413551 C104.78187053 25.05283051 100.88728264 25.05156679 96.99269474 25.05032361 C64.66179174 25.03994983 32.33089719 25.0220561 0 25 C0 16.75 0 8.5 0 0 Z M2 2 C2 8.93 2 15.86 2 23 C86.48 23 170.96 23 258 23 C258 16.07 258 9.14 258 2 C173.52 2 89.04 2 2 2 Z " fill="#3B3B3B" transform="translate(63,24)"/>
<path d="M0 0 C0.91402399 -0.00260775 1.82804798 -0.00521549 2.76976967 -0.00790226 C3.78560316 -0.00567154 4.80143665 -0.00344082 5.84805298 -0.0011425 C6.91809256 -0.00270249 7.98813213 -0.00426248 9.09059715 -0.00586975 C12.70588907 -0.0098848 16.3211396 -0.00668815 19.93643188 -0.00355339 C22.51620509 -0.00490721 25.09597809 -0.00668703 27.67575073 -0.00886345 C33.97322892 -0.01332177 40.27069522 -0.01234441 46.56817389 -0.00945081 C51.68398989 -0.00719702 56.79980254 -0.00688415 61.9156189 -0.00797462 C63.00569954 -0.00820447 63.00569954 -0.00820447 64.11780202 -0.00843897 C65.59388876 -0.00875868 67.0699755 -0.00908289 68.54606223 -0.00941156 C82.40365642 -0.01226653 96.26124401 -0.00897906 110.11883712 -0.00361119 C122.02223139 0.00085686 133.92561591 0.00008093 145.82901001 -0.00452995 C159.6353223 -0.00987541 173.44162879 -0.01199184 187.24794197 -0.00891769 C188.71875127 -0.00859912 190.18956057 -0.00828475 191.66036987 -0.00797462 C192.74601166 -0.00774321 192.74601166 -0.00774321 193.8535856 -0.00750712 C198.96622441 -0.00664188 204.07885956 -0.008105 209.1914978 -0.01045418 C216.06633938 -0.01354347 222.94116215 -0.01135987 229.81600189 -0.00555992 C232.34729735 -0.00423154 234.87859436 -0.00462774 237.40988922 -0.00682259 C240.8492595 -0.00953106 244.28856942 -0.00615669 247.72793579 -0.0011425 C249.25168603 -0.00448858 249.25168603 -0.00448858 250.8062191 -0.00790226 C252.17725509 -0.00399064 252.17725509 -0.00399064 253.57598877 0 C254.37096079 0.00016235 255.16593281 0.0003247 255.98499489 0.00049198 C257.78799438 0.12584114 257.78799438 0.12584114 258.78799438 1.12584114 C258.88761676 2.95569736 258.91879891 4.78936992 258.92080688 6.62193489 C258.92209595 7.73761848 258.92338501 8.85330208 258.92471313 10.00279427 C258.92084595 11.17777473 258.91697876 12.3527552 258.91299438 13.56334114 C258.91686157 14.73445442 258.92072876 15.9055677 258.92471313 17.11216927 C258.92277954 18.78762825 258.92277954 18.78762825 258.92080688 20.49693489 C258.91967896 21.52745979 258.91855103 22.5579847 258.91738892 23.61973763 C258.78799438 26.12584114 258.78799438 26.12584114 257.78799438 28.12584114 C170.99799438 28.12584114 84.20799438 28.12584114 -5.21200562 28.12584114 C-5.21200562 0.00106442 -5.21200562 0.00106442 0 0 Z M-3.21200562 2.12584114 C-3.21200562 10.37584114 -3.21200562 18.62584114 -3.21200562 27.12584114 C29.89343504 27.14842564 62.99887275 27.16633891 96.10431933 27.17690647 C100.00856194 27.17815725 103.91280453 27.17945156 107.81704712 27.18077278 C108.59434465 27.18103509 109.37164218 27.1812974 110.17249418 27.18156766 C122.77508109 27.18592453 135.37766346 27.19381217 147.98024767 27.20299394 C160.90194401 27.21233001 173.82363797 27.21789665 186.74533755 27.21992964 C194.7251948 27.22130496 202.70503923 27.22565606 210.68489254 27.23375761 C216.79343482 27.23964515 222.90196595 27.24030022 229.0105114 27.23894882 C231.524069 27.23922536 234.03762707 27.24123316 236.55118179 27.24504662 C239.96651768 27.24997676 243.38179738 27.24884195 246.7971344 27.24609566 C247.80586811 27.2490085 248.81460183 27.25192134 249.85390323 27.25492245 C250.76157713 27.2529314 251.66925103 27.25094035 252.6044302 27.24888897 C253.78858805 27.24945855 253.78858805 27.24945855 254.99666828 27.25003964 C256.81151555 27.32115488 256.81151555 27.32115488 257.78799438 26.12584114 C257.78799438 18.20584114 257.78799438 10.28584114 257.78799438 2.12584114 C171.65799438 2.12584114 85.52799438 2.12584114 -3.21200562 2.12584114 Z " fill="#AEAEAE" transform="translate(66.21200561523438,349.87415885925293)"/>
<path d="M0 0 C0.91402399 -0.00260775 1.82804798 -0.00521549 2.76976967 -0.00790226 C3.78560316 -0.00567154 4.80143665 -0.00344082 5.84805298 -0.0011425 C6.91809256 -0.00270249 7.98813213 -0.00426248 9.09059715 -0.00586975 C12.70588907 -0.0098848 16.3211396 -0.00668815 19.93643188 -0.00355339 C22.51620509 -0.00490721 25.09597809 -0.00668703 27.67575073 -0.00886345 C33.97322892 -0.01332177 40.27069522 -0.01234441 46.56817389 -0.00945081 C51.68398989 -0.00719702 56.79980254 -0.00688415 61.9156189 -0.00797462 C63.00569954 -0.00820447 63.00569954 -0.00820447 64.11780202 -0.00843897 C65.59388876 -0.00875868 67.0699755 -0.00908289 68.54606223 -0.00941156 C82.40365642 -0.01226653 96.26124401 -0.00897906 110.11883712 -0.00361119 C122.02223139 0.00085686 133.92561591 0.00008093 145.82901001 -0.00452995 C159.6353223 -0.00987541 173.44162879 -0.01199184 187.24794197 -0.00891769 C188.71875127 -0.00859912 190.18956057 -0.00828475 191.66036987 -0.00797462 C192.74601166 -0.00774321 192.74601166 -0.00774321 193.8535856 -0.00750712 C198.96622441 -0.00664188 204.07885956 -0.008105 209.1914978 -0.01045418 C216.06633938 -0.01354347 222.94116215 -0.01135987 229.81600189 -0.00555992 C232.34729735 -0.00423154 234.87859436 -0.00462774 237.40988922 -0.00682259 C240.8492595 -0.00953106 244.28856942 -0.00615669 247.72793579 -0.0011425 C249.25168603 -0.00448858 249.25168603 -0.00448858 250.8062191 -0.00790226 C252.17725509 -0.00399064 252.17725509 -0.00399064 253.57598877 0 C254.37096079 0.00016235 255.16593281 0.0003247 255.98499489 0.00049198 C257.78799438 0.12584114 257.78799438 0.12584114 258.78799438 1.12584114 C258.88761676 2.95569736 258.91879891 4.78936992 258.92080688 6.62193489 C258.92209595 7.73761848 258.92338501 8.85330208 258.92471313 10.00279427 C258.92084595 11.17777473 258.91697876 12.3527552 258.91299438 13.56334114 C258.91686157 14.73445442 258.92072876 15.9055677 258.92471313 17.11216927 C258.92277954 18.78762825 258.92277954 18.78762825 258.92080688 20.49693489 C258.91967896 21.52745979 258.91855103 22.5579847 258.91738892 23.61973763 C258.78799438 26.12584114 258.78799438 26.12584114 257.78799438 28.12584114 C171.32799438 28.12584114 84.86799438 28.12584114 -4.21200562 28.12584114 C-5.53614651 25.47755935 -5.34157603 23.45904002 -5.34481812 20.49693489 C-5.34610718 19.37996223 -5.34739624 18.26298958 -5.34872437 17.11216927 C-5.34485718 15.94105598 -5.34098999 14.7699427 -5.33700562 13.56334114 C-5.3408728 12.38836067 -5.34473999 11.2133802 -5.34872437 10.00279427 C-5.3474353 8.88711067 -5.34614624 7.77142708 -5.34481812 6.62193489 C-5.34369019 5.59253792 -5.34256226 4.56314095 -5.34140015 3.50255013 C-5.12253668 -0.51751749 -3.59907712 0.00073502 0 0 Z M-3.21200562 2.12584114 C-3.21200562 10.37584114 -3.21200562 18.62584114 -3.21200562 27.12584114 C29.89343504 27.14842564 62.99887275 27.16633891 96.10431933 27.17690647 C100.00856194 27.17815725 103.91280453 27.17945156 107.81704712 27.18077278 C108.59434465 27.18103509 109.37164218 27.1812974 110.17249418 27.18156766 C122.77508109 27.18592453 135.37766346 27.19381217 147.98024767 27.20299394 C160.90194401 27.21233001 173.82363797 27.21789665 186.74533755 27.21992964 C194.7251948 27.22130496 202.70503923 27.22565606 210.68489254 27.23375761 C216.79343482 27.23964515 222.90196595 27.24030022 229.0105114 27.23894882 C231.524069 27.23922536 234.03762707 27.24123316 236.55118179 27.24504662 C239.96651768 27.24997676 243.38179738 27.24884195 246.7971344 27.24609566 C247.80586811 27.2490085 248.81460183 27.25192134 249.85390323 27.25492245 C250.76157713 27.2529314 251.66925103 27.25094035 252.6044302 27.24888897 C253.78858805 27.24945855 253.78858805 27.24945855 254.99666828 27.25003964 C256.81151555 27.32115488 256.81151555 27.32115488 257.78799438 26.12584114 C257.78799438 18.20584114 257.78799438 10.28584114 257.78799438 2.12584114 C171.65799438 2.12584114 85.52799438 2.12584114 -3.21200562 2.12584114 Z " fill="#B5B5B5" transform="translate(66.21200561523438,21.87415885925293)"/>
<path d="M0 0 C26.58102659 -0.02254422 53.16204548 -0.04097754 79.74307919 -0.05181217 C92.0841754 -0.05697584 104.42526528 -0.06401987 116.76635742 -0.07543945 C127.51863454 -0.08538414 138.27090706 -0.09185291 149.02318865 -0.09408849 C154.72023211 -0.09539597 160.41726242 -0.09848413 166.11430168 -0.10573006 C171.469872 -0.11248688 176.82542367 -0.11461765 182.18099785 -0.11310768 C184.15273642 -0.11338416 186.12447558 -0.11539128 188.09621048 -0.11920547 C190.77586922 -0.12413745 193.45545639 -0.12300013 196.13511658 -0.12025452 C196.92595719 -0.12316736 197.7167978 -0.1260802 198.53160328 -0.12908131 C203.88587879 -0.11412121 203.88587879 -0.11412121 205 1 C205.30758516 4.78350955 205.278377 8.58052188 205.3125 12.375 C205.34150391 13.44234375 205.37050781 14.5096875 205.40039062 15.609375 C205.40876953 16.63289063 205.41714844 17.65640625 205.42578125 18.7109375 C205.44765503 20.12318604 205.44765503 20.12318604 205.4699707 21.56396484 C205 24 205 24 202.97338867 25.83056641 C201.99656128 26.40943604 201.99656128 26.40943604 201 27 C201.33 26.01 201.66 25.02 202 24 C202.33 16.74 202.66 9.48 203 2 C136.67 2 70.34 2 2 2 C2 18.5 2 35 2 52 C40.28 52 78.56 52 118 52 C118.495 53.98 118.495 53.98 119 56 C118.67 55.34 118.34 54.68 118 54 C79.06 54 40.12 54 0 54 C0 36.18 0 18.36 0 0 Z " fill="#5A5A5A" transform="translate(94,68)"/>
<path d="M0 0 C0.99 0.33 1.98 0.66 3 1 C2.34 2.32 1.68 3.64 1 5 C43.24 5 85.48 5 129 5 C129 22.49 129 39.98 129 58 C127.18591364 59.81408636 124.68457297 59.12264895 122.26987213 59.12908131 C121.44012204 59.12616847 120.61037194 59.12325563 119.75547791 59.12025452 C118.88074328 59.12110894 118.00600865 59.12196337 117.10476691 59.12284368 C114.15047207 59.12450117 111.19623303 59.11897273 108.24194336 59.11352539 C106.1334483 59.11324355 104.02495314 59.11340119 101.91645813 59.1139679 C96.17289034 59.114256 90.42934324 59.10835726 84.68578029 59.10139394 C78.69063212 59.09516246 72.69548354 59.09455677 66.70033264 59.09336853 C55.33891904 59.0902546 43.977515 59.08204039 32.61610562 59.07201904 C19.68525354 59.0608598 6.75440102 59.05534793 -6.17645466 59.05032361 C-32.7843086 59.03985783 -59.39215336 59.02205688 -86 59 C-86 50.75 -86 42.5 -86 34 C-85.01 33.505 -85.01 33.505 -84 33 C-84.33 41.25 -84.66 49.5 -85 58 C-15.04 58 54.92 58 127 58 C127 41.17 127 24.34 127 7 C121.29033936 7.01571045 121.29033936 7.01571045 115.46533203 7.03173828 C102.91641318 7.0648152 90.36749504 7.0870462 77.81854439 7.10362434 C70.20696927 7.11394662 62.59543538 7.12802505 54.98388672 7.15087891 C48.35136732 7.17078375 41.71887778 7.18370951 35.08632934 7.18817699 C31.57289744 7.19078932 28.05955097 7.196949 24.54614639 7.21146011 C20.62856671 7.22751002 16.71107139 7.22798156 12.79345703 7.22705078 C11.62245453 7.23424133 10.45145203 7.24143188 9.2449646 7.24884033 C7.65056549 7.24471634 7.65056549 7.24471634 6.0239563 7.24050903 C5.09663256 7.24235262 4.16930882 7.24419621 3.21388435 7.24609566 C1 7 1 7 -1 5 C-0.625 2.375 -0.625 2.375 0 0 Z " fill="#424242" transform="translate(172,273)"/>
<path d="M0 0 C1 2 1 2 0.75 4.0625 C0.5025 4.701875 0.255 5.34125 0 6 C-0.99 6.33 -1.98 6.66 -3 7 C-3.33 8.32 -3.66 9.64 -4 11 C37.25 11 78.5 11 121 11 C121 29.48 121 47.96 121 67 C120.34 66.67 119.68 66.34 119 66 C119.33 48.51 119.66 31.02 120 13 C77.76 13 35.52 13 -8 13 C-6.99126158 8.96504633 -5.9884338 7.40388179 -3.4375 4.25 C-2.79683594 3.45078125 -2.15617188 2.6515625 -1.49609375 1.828125 C-1.00238281 1.22484375 -0.50867188 0.6215625 0 0 Z " fill="#C3C3C3" transform="translate(181,265)"/>
<path d="M0 0 C26.84179182 -0.02332561 53.68358214 -0.04097751 80.52538204 -0.05181217 C92.98754655 -0.05697585 105.44970476 -0.06401991 117.91186523 -0.07543945 C128.76961778 -0.08538411 139.62736577 -0.0918529 150.48512274 -0.09408849 C156.2380575 -0.09539597 161.99097924 -0.09848417 167.74390984 -0.10573006 C173.15200976 -0.11248683 178.56009122 -0.11461767 183.96819496 -0.11310768 C185.95928421 -0.11338416 187.95037404 -0.11539131 189.94145966 -0.11920547 C192.64739253 -0.12413737 195.35325453 -0.12300016 198.05918884 -0.12025452 C199.2571226 -0.12462378 199.2571226 -0.12462378 200.47925705 -0.12908131 C205.88587879 -0.11412121 205.88587879 -0.11412121 207 1 C207.28060716 5.13895558 207.23179994 9.29016223 207.25 13.4375 C207.2809375 15.19416992 207.2809375 15.19416992 207.3125 16.98632812 C207.32023437 18.66178711 207.32023437 18.66178711 207.328125 20.37109375 C207.3374707 21.40161865 207.34681641 22.43214355 207.35644531 23.49389648 C207.23881836 24.32091064 207.12119141 25.1479248 207 26 C206.01 26.66 205.02 27.32 204 28 C203.2575 29.2375 203.2575 29.2375 202.5 30.5 C201 33 201 33 198 35 C199.32347012 30.14727622 200.23312136 28.76687864 204 25 C204 17.41 204 9.82 204 2 C136.68 1.67 69.36 1.34 0 1 C0 0.67 0 0.34 0 0 Z " fill="#D5D5D5" transform="translate(94,67)"/>
<path d="M0 0 C38.94 0 77.88 0 118 0 C117.08160162 4.59199188 116.65998007 5.89491863 113.9375 9.3125 C113.38964844 10.00988281 112.84179688 10.70726562 112.27734375 11.42578125 C111.64505859 12.20501953 111.64505859 12.20501953 111 13 C110 11 110 11 110.75 7.9375 C111.1625 6.968125 111.575 5.99875 112 5 C112.99 4.67 113.98 4.34 115 4 C115 3.34 115 2.68 115 2 C77.05 1.67 39.1 1.34 0 1 C0 0.67 0 0.34 0 0 Z " fill="#CDCDCD" transform="translate(94,122)"/>
<path d="M0 0 C0 4.04939625 -1.64464444 5.76979808 -4 9 C-4.48984375 9.45761719 -4.9796875 9.91523438 -5.484375 10.38671875 C-7.34167078 12.36368565 -8.28810353 14.35919803 -9.4375 16.8125 C-11.37467787 20.79771833 -13.30923262 24.47416689 -16 28 C-16.66 28 -17.32 28 -18 28 C-18.144375 28.61875 -18.28875 29.2375 -18.4375 29.875 C-19 32 -19 32 -20 34 C-20.66 34 -21.32 34 -22 34 C-22.66 35.32 -23.32 36.64 -24 38 C-24 30.4353013 -17.16306704 23.3105434 -12.85546875 17.5078125 C-10.04744237 13.71254316 -7.50212367 9.77600931 -4.9375 5.8125 C-3.40235196 3.58405929 -1.99698677 1.7972881 0 0 Z " fill="#383838" transform="translate(119,261)"/>
<path d="M0 0 C0.66 0.33 1.32 0.66 2 1 C-0.42512123 6.22333803 -3.08326144 10.54167875 -6.6328125 15.0625 C-8.22125893 17.15662857 -8.22125893 17.15662857 -9.4375 20.5625 C-11.18855803 24.41482767 -13.23769839 26.37899892 -16.28125 29.22265625 C-18.83981518 31.86844525 -20.33324814 34.73316635 -22 38 C-22.33 37.34 -22.66 36.68 -23 36 C-20.65625 29.4375 -20.65625 29.4375 -17 27 C-16.67 26.01 -16.34 25.02 -16 24 C-15.34 24 -14.68 24 -14 24 C-13.34 22.02 -12.68 20.04 -12 18 C-11.34 18 -10.68 18 -10 18 C-9.7525 17.319375 -9.505 16.63875 -9.25 15.9375 C-7.17859755 11.06970425 -4.86776456 6.68358529 -1 3 C-0.67 2.01 -0.34 1.02 0 0 Z " fill="#525252" transform="translate(251,157)"/>
<path d="M0 0 C0.99 0 1.98 0 3 0 C3.08676908 4.12486838 3.14031295 8.24950384 3.1875 12.375 C3.22520508 14.1384375 3.22520508 14.1384375 3.26367188 15.9375 C3.27817383 17.61972656 3.27817383 17.61972656 3.29296875 19.3359375 C3.31653442 20.89127197 3.31653442 20.89127197 3.34057617 22.47802734 C3.17199097 23.72640381 3.17199097 23.72640381 3 25 C2.01 25.66 1.02 26.32 0 27 C-0.7425 28.2375 -0.7425 28.2375 -1.5 29.5 C-3 32 -3 32 -6 34 C-4.48211829 28.43443375 -4.48211829 28.43443375 -1.94628906 26.14941406 C0.54808726 23.39471146 0.46861763 22.02502872 0.390625 18.359375 C0.37773437 17.28945312 0.36484375 16.21953125 0.3515625 15.1171875 C0.31804687 14.00601563 0.28453125 12.89484375 0.25 11.75 C0.23195313 10.62335938 0.21390625 9.49671875 0.1953125 8.3359375 C0.14820222 5.55643104 0.08243361 2.7786466 0 0 Z " fill="#CACACA" transform="translate(298,68)"/>
<path d="M0 0 C0.66 0.33 1.32 0.66 2 1 C0.44602529 3.64175701 -1.14788779 6.21690209 -2.875 8.75 C-4.57083291 11.34362681 -6.04320347 13.89909238 -7.5 16.625 C-9.32655408 19.97555013 -11.19779527 22.38460892 -14 25 C-15.01187895 26.65948148 -16.0126546 28.32580562 -17 30 C-18.6875 31.8125 -18.6875 31.8125 -20 33 C-19.3922283 29.60407563 -18.14495305 27.61353517 -16 24.9375 C-14.0569079 22.50396398 -12.9987139 20.99614169 -12 18 C-11.34 18 -10.68 18 -10 18 C-9.731875 17.071875 -9.46375 16.14375 -9.1875 15.1875 C-8.04142433 12.11119161 -7.26517658 11.16669064 -5 9 C-4.835 8.319375 -4.67 7.63875 -4.5 6.9375 C-4 5 -4 5 -1 3 C-0.67 2.01 -0.34 1.02 0 0 Z " fill="#454545" transform="translate(281,113)"/>
<path d="M0 0 C0.609375 1.81640625 0.609375 1.81640625 1 4 C-0.75 6.9375 -0.75 6.9375 -3 10 C-3.7734375 11.3303125 -3.7734375 11.3303125 -4.5625 12.6875 C-6 15 -6 15 -7.5 16.4375 C-9.63032356 18.65658704 -10.70831095 21.23209489 -12 24 C-12.99 24 -13.98 24 -15 24 C-13.78567447 20.54384273 -12.61659454 18.51193075 -10 16 C-9.505 15.175 -9.01 14.35 -8.5 13.5 C-7 11 -7 11 -5.54296875 9.60546875 C-3.80483055 7.79692495 -2.88670878 6.07204261 -1.8125 3.8125 C-1.46832031 3.09707031 -1.12414062 2.38164062 -0.76953125 1.64453125 C-0.51558594 1.10183594 -0.26164063 0.55914062 0 0 Z " fill="#484848" transform="translate(135,235)"/>
<path d="M0 0 C0.75 1.75 0.75 1.75 1 4 C-0.75 5.9375 -0.75 5.9375 -3 8 C-4.03789581 9.64333504 -5.03567924 11.31243867 -6 13 C-7.32346506 15.0065438 -8.65729179 17.00628175 -10 19 C-10.680625 20.0725 -11.36125 21.145 -12.0625 22.25 C-14 25 -14 25 -17 27 C-15.7041698 21.93448195 -13.74702886 19.56424697 -10 16 C-8.95107762 14.36368108 -7.95093297 12.69514137 -7 11 C-5 8 -5 8 -3 5 C-1.98940479 3.33973644 -0.98546999 1.67529898 0 0 Z " fill="#B5B5B5" transform="translate(217,211)"/>
<path d="M0 0 C0 3.69829262 -1.05378162 4.87214904 -3 8 C-3.96669092 10.06863901 -4.91729229 12.14174835 -5.83984375 14.23046875 C-7.26123948 16.39845618 -8.63076564 17.03548914 -11 18 C-9.41037341 13.96479403 -7.71767682 9.98188718 -6 6 C-5.34 6 -4.68 6 -4 6 C-3.71125 5.38125 -3.4225 4.7625 -3.125 4.125 C-2 2 -2 2 0 0 Z " fill="#9B9B9B" transform="translate(203,135)"/>
<path d="M0 0 C0.66 0.33 1.32 0.66 2 1 C-0.92362264 5.72093163 -3.89627021 10.39446548 -7 15 C-7.680625 16.0725 -8.36125 17.145 -9.0625 18.25 C-11 21 -11 21 -14 23 C-13.34 21.02 -12.68 19.04 -12 17 C-11.34 17 -10.68 17 -10 17 C-9.7525 16.46375 -9.505 15.9275 -9.25 15.375 C-7.70277586 12.43527414 -5.84268831 9.76403247 -4 7 C-2.6306703 4.68518075 -1.31426868 2.34690836 0 0 Z " fill="#464646" transform="translate(217,208)"/>
<path d="M0 0 C0 3.48961209 -0.90379374 5.11480295 -2.5 8.1875 C-2.9640625 9.08855469 -3.428125 9.98960937 -3.90625 10.91796875 C-4.2671875 11.60503906 -4.628125 12.29210937 -5 13 C-5.66 13 -6.32 13 -7 13 C-7 13.99 -7 14.98 -7 16 C-8.65 16.66 -10.3 17.32 -12 18 C-10.55038946 14.8195112 -8.75253422 12.28002633 -6.5625 9.5625 C-4.12362586 6.4834214 -1.89415643 3.45404997 0 0 Z " fill="#B0B0B0" transform="translate(268,136)"/>
<path d="M0 0 C0.7109375 1.75 0.7109375 1.75 1 4 C-0.3984375 6 -0.3984375 6 -2.375 8 C-5.0218101 10.6995354 -6.19279578 12.3323148 -7 16 C-9.0625 17.25 -9.0625 17.25 -11 18 C-9.76130107 14.17129422 -7.95080048 11.63570441 -5.30859375 8.625 C-3.15728226 5.95352065 -1.6271763 3.01328944 0 0 Z " fill="#4D4D4D" transform="translate(153,209)"/>
<path d="M0 0 C0.99 0 1.98 0 3 0 C1.65677666 5.00655974 -0.46949451 9.19711129 -4 13 C-4.99 13.33 -5.98 13.66 -7 14 C-5.54616376 9.88079732 -3.43337681 6.61081721 -1 3 C-0.67 2.01 -0.34 1.02 0 0 Z " fill="#606060" transform="translate(167,186)"/>
<path d="M0 0 C0.75 1.6875 0.75 1.6875 1 4 C-0.75 6.375 -0.75 6.375 -3 9 C-4.04451438 10.97711651 -5.05698138 12.97250996 -6 15 C-6.99 15 -7.98 15 -9 15 C-7.77483948 11.51300468 -6.57303252 9.57303252 -4 7 C-2.57467274 4.71021433 -1.29562215 2.36786117 0 0 Z " fill="#C7C7C7" transform="translate(199,238)"/>
<path d="M0 0 C0 4.04939625 -1.64464444 5.76979808 -4 9 C-5 10 -6 11 -7 12 C-7.495 12.845625 -7.99 13.69125 -8.5 14.5625 C-10 17 -10 17 -13 19 C-11.34564567 15.41556563 -9.21721059 12.2606038 -7 9 C-5.9790625 7.4221875 -5.9790625 7.4221875 -4.9375 5.8125 C-3.40235196 3.58405929 -1.99698677 1.7972881 0 0 Z " fill="#464646" transform="translate(119,261)"/>
<path d="M0 0 C0.66 0.33 1.32 0.66 2 1 C-0.44564634 5.0066972 -2.92153526 8.95503052 -5.6875 12.75 C-7.40348336 15.16165228 -8.81681962 17.31095369 -10 20 C-10.33 19.34 -10.66 18.68 -11 18 C-10.07421875 15.9765625 -10.07421875 15.9765625 -8.6875 13.625 C-7.03043318 10.78567061 -5.43810357 7.95722705 -4 5 C-3.34 5 -2.68 5 -2 5 C-1.34 3.35 -0.68 1.7 0 0 Z " fill="#4B4B4B" transform="translate(197,238)"/>
<path d="M0 0 C0.99 0 1.98 0 3 0 C1.68544658 2.93246533 0.25126383 4.74873617 -2 7 C-3.02611949 8.65071396 -4.02308143 10.31970006 -5 12 C-6.32458708 14.00580329 -7.6559907 16.00715862 -9 18 C-9 13.41825564 -6.4505731 10.66903279 -3.9375 6.9375 C-2.4311098 4.65361809 -1.14259382 2.47561994 0 0 Z " fill="#B0B0B0" transform="translate(117,259)"/>
<path d="M0 0 C0 0.99 0 1.98 0 3 C-0.66 3.66 -1.32 4.32 -2 5 C-2.309375 5.804375 -2.61875 6.60875 -2.9375 7.4375 C-4.01236578 10.02982335 -5.0632335 11.0632335 -7 13 C-7.71447643 15.10332891 -7.71447643 15.10332891 -8 17 C-8.99 17 -9.98 17 -11 17 C-9.77784763 13.52156634 -8.56815239 11.56815239 -6 9 C-5.505 8.01 -5.01 7.02 -4.5 6 C-3.19258836 3.38517672 -2.18153327 1.86988566 0 0 Z " fill="#A6A6A6" transform="translate(229,194)"/>
<path d="M0 0 C0.33 0.66 0.66 1.32 1 2 C-0.1875 4.25 -0.1875 4.25 -2 7 C-2.66 8.051875 -3.32 9.10375 -4 10.1875 C-6 13 -6 13 -9 15 C-7.56387535 12.08785835 -6.0615021 9.22188493 -4.5 6.375 C-4.0771875 5.59898437 -3.654375 4.82296875 -3.21875 4.0234375 C-2 2 -2 2 0 0 Z " fill="#ACACAC" transform="translate(255,155)"/>
<path d="M0 0 C0 3.60573896 -0.81707462 4.41336566 -3 7.1875 C-3.556875 7.90292969 -4.11375 8.61835938 -4.6875 9.35546875 C-5.120625 9.89816406 -5.55375 10.44085938 -6 11 C-7 9 -7 9 -6.375 6.0625 C-4.78347785 2.51774612 -3.44915962 1.63381245 0 0 Z " fill="#A6A6A6" transform="translate(211,124)"/>
<path d="M0 0 C0.99 0 1.98 0 3 0 C1.59023295 3.03852705 -0.08870228 5.5939595 -2.125 8.25 C-2.66382813 8.95640625 -3.20265625 9.6628125 -3.7578125 10.390625 C-4.16773438 10.92171875 -4.57765625 11.4528125 -5 12 C-5 8.55639368 -4.20408468 7.25204608 -2.5 4.3125 C-2.0359375 3.50425781 -1.571875 2.69601562 -1.09375 1.86328125 C-0.7328125 1.24839844 -0.371875 0.63351562 0 0 Z " fill="#4F4F4F" transform="translate(183,258)"/>
<path d="M0 0 C1.125 3.75 1.125 3.75 0 6 C-0.66 6 -1.32 6 -2 6 C-2 6.99 -2 7.98 -2 9 C-2.99 9 -3.98 9 -5 9 C-3.7508258 5.54074837 -2.32472205 2.85306797 0 0 Z " fill="#515151" transform="translate(159,200)"/>
<path d="M0 0 C0.99 0 1.98 0 3 0 C2.03250577 2.15825637 1.21906689 3.7900609 -0.5 5.4375 C-2.39903312 7.4156595 -3.09899031 9.43558782 -4 12 C-5 10 -5 10 -4.25 7.6875 C-2.98117798 4.95953266 -1.75071182 2.45099655 0 0 Z " fill="#A1A1A1" transform="translate(189,153)"/>
<path d="M0 0 C0.33 0.66 0.66 1.32 1 2 C0.06553465 4.03144641 -0.93224776 6.03533587 -2 8 C-2.99 8 -3.98 8 -5 8 C-3.8141763 4.62496331 -2.72426311 2.35277269 0 0 Z " fill="#505050" transform="translate(125,251)"/>
<path d="M0 0 C0 3.63327194 -0.95586411 5.04735927 -3 8 C-3.99 8.66 -4.98 9.32 -6 10 C-4.79157144 5.56909529 -3.48331435 3.01887244 0 0 Z " fill="#AAAAAA" transform="translate(298,92)"/>
<path d="M0 0 C0 3.63327194 -0.95586411 5.04735927 -3 8 C-3.99 8.66 -4.98 9.32 -6 10 C-5.34 8.02 -4.68 6.04 -4 4 C-3.34 4 -2.68 4 -2 4 C-1.34 2.68 -0.68 1.36 0 0 Z " fill="#3E3E3E" transform="translate(209,221)"/>
<path d="M0 0 C0.66 0.33 1.32 0.66 2 1 C0.68 3.64 -0.64 6.28 -2 9 C-2.66 9 -3.32 9 -4 9 C-3.625 6.5625 -3.625 6.5625 -3 4 C-2.34 3.67 -1.68 3.34 -1 3 C-0.67 2.01 -0.34 1.02 0 0 Z " fill="#3A3A3A" transform="translate(251,157)"/>
<path d="M0 0 C1 2 1 2 0.3125 4.5 C-1.15567038 7.29651501 -2.09303901 7.93411431 -5 9 C-3.7508258 5.54074837 -2.32472205 2.85306797 0 0 Z " fill="#BFBFBF" transform="translate(291,102)"/>
<path d="M0 0 C0.66 0.33 1.32 0.66 2 1 C-1.625 6.75 -1.625 6.75 -5 9 C-4.34 7.02 -3.68 5.04 -3 3 C-2.34 3 -1.68 3 -1 3 C-0.67 2.01 -0.34 1.02 0 0 Z " fill="#B3B3B3" transform="translate(132,238)"/>
<path d="M0 0 C0.33 0.66 0.66 1.32 1 2 C-0.68474722 5.36949443 -1.8191658 6.87944386 -5 9 C-3.90931332 5.22454612 -3.0916909 2.52956528 0 0 Z " fill="#A1A1A1" transform="translate(205,229)"/>
<path d="M0 0 C0.33 0.66 0.66 1.32 1 2 C-0.25 4.5625 -0.25 4.5625 -2 7 C-2.99 7.33 -3.98 7.66 -5 8 C-3.8141763 4.62496331 -2.72426311 2.35277269 0 0 Z " fill="#535353" transform="translate(197,145)"/>
<path d="M0 0 C0.99 0 1.98 0 3 0 C1.50163895 3.11198065 -0.19933758 6.0534615 -2 9 C-2.33 8.34 -2.66 7.68 -3 7 C-2.06421005 4.64018187 -1.06652192 2.30368736 0 0 Z " fill="#A7A7A7" transform="translate(91,297)"/>
</svg>
